# xmcd CD database file
#
# Track frame offsets:
#	150
#	26514
#	49020
#	82405
#	92451
#	118556
#	139541
#	164218
#	189916
#	219732
#	241574
#	271632
#	293674
#
# Disc length: 4204 seconds
#
# Revision: 0
# Processed by: cddbd v1.5.2PL0 Copyright (c) Steve Scherf et al.
# Submitted via: CDex 1.70beta2
#
DISCID=ad106a0d
DTITLE=Christian Scott - Anthem
DYEAR=2007
DGENRE=Jazz
TTITLE0=Litany Against Fear
TTITLE1=Void
TTITLE2=Anthem (Antediluvian Adaptation)
TTITLE3=Re:
TTITLE4=Cease Fire
TTITLE5=Dialect
TTITLE6=Remains Distant
TTITLE7=The Uprising
TTITLE8=Katrina's Eyes
TTITLE9=The 9
TTITLE10=Like That
TTITLE11=Anthem (Post Diluvial Adaptation)
TTITLE12=Naima
EXTD=YEAR: 2007
EXTT0=
EXTT1=
EXTT2=
EXTT3=
EXTT4=
EXTT5=
EXTT6=
EXTT7=
EXTT8=
EXTT9=
EXTT10=
EXTT11=
EXTT12=
PLAYORDER=
